<?xml version="1.0" standalone="no"?>
<!DOCTYPE svg PUBLIC "-//W3C//DTD SVG 1.1//EN" "http://www.w3.org/Graphics/SVG/1.1/DTD/svg11.dtd" >
<svg>
<metadata>
Created by FontForge 20090622 at Thu Sep 15 10:41:45 2016
 By deploy user
Copyright (c) 2013 by Thinkdust. All rights reserved.
</metadata>
<defs>
<font id="Nanami-Book" horiz-adv-x="600" >
  <font-face 
    font-family="Nanami Book"
    font-weight="400"
    font-stretch="normal"
    units-per-em="1000"
    panose-1="2 0 0 0 0 0 0 0 0 0"
    ascent="750"
    descent="-250"
    x-height="499"
    cap-height="749"
    bbox="-51 -234 1235 956"
    underline-thickness="50"
    underline-position="-50"
    unicode-range="U+0020-U+FB01"
  />
<missing-glyph horiz-adv-x="290" 
 />
    <glyph glyph-name=".notdef" horiz-adv-x="290" 
 />
    <glyph glyph-name=".null" horiz-adv-x="0" 
 />
    <glyph glyph-name="nonmarkingreturn" horiz-adv-x="333" 
 />
    <glyph glyph-name="space" unicode=" " horiz-adv-x="290" 
 />
    <glyph glyph-name="exclam" unicode="!" horiz-adv-x="196" 
d="M155 750v-600h-113v600h113zM155 52q0 -23 -17 -39.5t-40 -16.5t-40 16.5t-17 39.5q0 24 17 40.5t40 16.5t40 -16.5t17 -40.5z" />
    <glyph glyph-name="quotedbl" unicode="&#x22;" horiz-adv-x="351" 
d="M210 459v291h92v-291h-92zM48 459v291h92v-291h-92z" />
    <glyph glyph-name="numbersign" unicode="#" horiz-adv-x="673" 
d="M191 281l21 153h-139v67h150l28 207h67l-27 -207h133l28 207h66l-4 -34l-9.5 -66.5t-13.5 -106.5h140v-67h-150l-21 -153h139v-67h-149l-29 -214h-69q2 19 12 85t18 129h-134l-29 -214h-67q2 21 29 214h-139v67h149zM281 434l-21 -153h132l22 153h-133z" />
    <glyph glyph-name="dollar" unicode="$" horiz-adv-x="503" 
d="M44 138l110 18q26 -49 93 -49q39 0 68.5 29.5t29.5 69.5q0 27 -8.5 47t-28.5 34.5t-35 22t-44 19.5q-89 35 -137.5 84t-48.5 130q0 78 43 134t114 73v91h102v-90q44 -11 80 -39t54 -68l-105 -51q-24 47 -80 47q-36 0 -63.5 -27.5t-27.5 -63.5q0 -26 14 -46.5t28 -29.5
t37 -20q87 -40 105 -51q60 -34 88 -80.5t28 -115.5q0 -74 -45 -131.5t-113 -75.5v-91h-102v89q-64 8 -106 46t-50 95z" />
    <glyph glyph-name="percent" unicode="%" horiz-adv-x="892" 
d="M574 180q0 -40 27.5 -67.5t67.5 -27.5t67.5 27.5t27.5 67.5t-27.5 67.5t-67.5 27.5t-67.5 -27.5t-27.5 -67.5zM489 180q0 75 52.5 127.5t127.5 52.5t127.5 -52.5t52.5 -127.5t-52.5 -127.5t-127.5 -52.5t-127.5 52.5t-52.5 127.5zM127 570q0 -40 27.5 -67.5t67.5 -27.5
t67.5 27.5t27.5 67.5t-27.5 67.5t-67.5 27.5t-67.5 -27.5t-27.5 -67.5zM42 570q0 75 52.5 127.5t127.5 52.5t127.5 -52.5t52.5 -127.5t-52.5 -127.5t-127.5 -52.5t-127.5 52.5t-52.5 127.5zM274 -10l-52 32l387 734l53 -30l-107 -207l-105.5 -201l-88.5 -166l-64 -119z" />
    <glyph glyph-name="ampersand" unicode="&#x26;" horiz-adv-x="715" 
d="M613 424l-89 -172q-4 -6 -5 -10q4 -6 6 -8l158 -153l-76 -81l-142 139l-8 -16q-70 -131 -200 -131q-92 0 -158 63t-66 155q0 126 142 219q-88 76 -88 160q0 70 51 119.5t126 49.5q68 0 118 -50t50 -119q0 -103 -93 -172l96 -96l80 153zM143 214q0 -47 32.5 -80t80.5 -33
q71 0 116 96q9 15 9 22l-133 130q-105 -61 -105 -135zM196 588q0 -47 69 -96q15 2 36.5 30t21.5 63q0 25 -18.5 43.5t-43.5 18.5q-27 0 -46 -16.5t-19 -42.5z" />
    <glyph glyph-name="quotesingle" unicode="'" horiz-adv-x="187" 
d="M47 460v290h92v-290h-92z" />
    <glyph glyph-name="parenleft" unicode="(" horiz-adv-x="297" 
d="M47 162v379q0 159 118 252l75 -79q-49 -47 -63 -90t-14 -119v-307q0 -75 14.5 -118t62.5 -90l-75 -80q-118 93 -118 252z" />
    <glyph glyph-name="parenright" unicode=")" horiz-adv-x="295" 
d="M249 541v-379q0 -158 -119 -252l-74 80q48 47 62.5 90t14.5 118v307q0 75 -14.5 118t-62.5 91l74 79q119 -93 119 -252z" />
    <glyph glyph-name="asterisk" unicode="*" horiz-adv-x="438" 
d="M35 484v94l123 -21l-103 71l67 67l71 -103l-22 123h95l-22 -123l71 103l67 -68l-103 -70l123 21v-94l-123 22l103 -71l-67 -67l-71 103l22 -123h-95l22 123l-71 -103l-67 67l103 71z" />
    <glyph glyph-name="plus" unicode="+" horiz-adv-x="572" 
d="M242 298v202h88v-202h206v-88h-206v-204h-88v204h-207v88h207z" />
    <glyph glyph-name="comma" unicode="," horiz-adv-x="180" 
d="M34 104l96 15l6 -95t7 -96q-35 -4 -55 -5z" />
    <glyph glyph-name="hyphen" unicode="-" horiz-adv-x="412" 
d="M47 332h317v-90h-317v90z" />
    <glyph glyph-name="period" unicode="." horiz-adv-x="190" 
d="M96 -4q-22 0 -37 14.5t-15 34.5q0 21 15 36t37 15q19 0 34 -15.5t15 -35.5t-14.5 -34.5t-34.5 -14.5z" />
    <glyph glyph-name="slash" unicode="/" horiz-adv-x="333" 
d="M87 -5l-57 13l216 749l56 -15z" />
    <glyph glyph-name="zero" unicode="0" 
d="M300 -8q-101 0 -175.5 73t-74.5 176v267q0 100 74 174.5t176 74.5q98 0 173.5 -72.5t75.5 -176.5v-267q0 -101 -73.5 -175t-175.5 -74zM300 639q-55 0 -95 -40.5t-40 -92.5v-263q0 -52 40.5 -93t94.5 -41t93 40t39 94v263q0 54 -39 93.5t-93 39.5z" />
    <glyph glyph-name="one" unicode="1" 
d="M174 643v107h233v-750h-117v633q0 10 -9 10h-107z" />
    <glyph glyph-name="two" unicode="2" 
d="M97 0l-24 88l254 250q63 58 88 104t25 93q0 42 -31 75t-80 33q-85 0 -142 -96l-73 79q82 130 216 130q103 0 164 -64.5t61 -162.5q0 -61 -33 -121.5t-113 -140.5l-148 -142l-7 -9q0 -2 4 -2h298v-114h-459z" />
    <glyph glyph-name="three" unicode="3" 
d="M121 581l-47 97q81 80 184 80q92 0 147 -53.5t55 -132.5q0 -44 -22.5 -83.5t-55.5 -61.5q-3 -1 -3 -5q0 -1 5 -4q119 -63 119 -191q0 -98 -67 -165.5t-172 -67.5q-113 0 -200 84l55 100q69 -69 141 -69q56 0 91 35.5t35 85.5q0 54 -40.5 89.5t-103.5 40.5l-56 2v99l44 2
q55 4 84.5 33.5t29.5 70.5q0 32 -24.5 56t-68.5 24q-67 0 -130 -66z" />
    <glyph glyph-name="four" unicode="4" 
d="M49 125v113l161 254l163 257h110v-475q0 -23 1 -33q6 -1 20 -1h53v-117h-54q-8 0 -13 -1.5t-6.5 -5.5t-1.5 -7t0.5 -9t0.5 -9v-91h-116v119q0 6 -6 6h-312zM362 540l-184 -297q-1 -1 -1 -3q0 -3 4 -3h179q7 0 7 7v294q0 4 -2 4q-1 0 -3 -2z" />
    <glyph glyph-name="five" unicode="5" 
d="M119 750h348v-115h-249q-10 0 -11 -7l-23 -141q-1 -3 -1 -9l16 5q26 8 74 9q108 0 177.5 -69.5t69.5 -173.5q0 -106 -74.5 -181.5t-181.5 -75.5q-116 0 -206 87l51 104q66 -75 153 -75q62 0 102.5 41t40.5 98t-40 95.5t-100 38.5q-21 0 -40.5 -3t-35 -9t-24.5 -10
t-20.5 -11t-13.5 -8l-66 68q2 20 4 34z" />
    <glyph glyph-name="six" unicode="6" 
d="M38 253q2 78 35 131l238 376l99 -62q-17 -29 -53 -83t-51 -79l-17 -28q5 1 19 1q106 -5 179.5 -75.5t73.5 -180.5q0 -109 -76 -185t-184 -76q-111 0 -187 75.5t-76 185.5zM155 253q0 -63 41 -104t104 -41q61 0 102.5 41t41.5 104q0 61 -42 103t-102 42q-63 0 -104 -41.5
t-41 -103.5z" />
    <glyph glyph-name="seven" unicode="7" 
d="M87 636v114h420l24 -72l-303 -686l-107 46l243 552q2 5 9 19.5t10 23.5q0 3 -5 3h-291z" />
    <glyph glyph-name="eight" unicode="8" 
d="M300 -9q-100 0 -170.5 71.5t-70.5 169.5q0 105 105 187q-68 63 -68 135q0 84 60 143.5t144 59.5q81 0 142 -58t61 -138q0 -71 -68 -142q105 -78 105 -187q0 -99 -71 -170t-169 -71zM300 357q-53 0 -89.5 -36.5t-36.5 -88.5t37 -89t89 -37t88 37.5t36 88.5q0 54 -36 89.5
t-88 35.5zM300 642q-37 0 -63 -26t-26 -62q0 -37 26.5 -63.5t62.5 -26.5t62 27t26 63q0 37 -25.5 62.5t-62.5 25.5z" />
    <glyph glyph-name="nine" unicode="9" 
d="M561 493q-2 -79 -35 -131l-237 -372l-99 61q17 29 52 81t51 78l17 28q-5 -1 -19 -1q-106 5 -179.5 75.5t-73.5 180.5q0 109 76 185t184 76q111 0 187 -76t76 -185zM444 493q0 63 -41 104t-104 41q-61 0 -102.5 -41t-41.5 -104q0 -61 42 -103t102 -42q63 0 104 41.5
t41 103.5z" />
    <glyph glyph-name="colon" unicode=":" horiz-adv-x="192" 
d="M97 -4q-22 0 -37 14.5t-15 34.5q0 21 15.5 36t36.5 15q19 0 34 -15.5t15 -35.5t-14.5 -34.5t-34.5 -14.5zM97 356q-22 0 -37 14.5t-15 34.5q0 22 15 36.5t37 14.5q20 0 34.5 -15t14.5 -36q0 -20 -14.5 -34.5t-34.5 -14.5z" />
    <glyph glyph-name="semicolon" unicode=";" horiz-adv-x="185" 
d="M44 406q0 22 15 36.5t35 14.5q21 0 36 -15t15 -36q0 -20 -14.5 -34.5t-36.5 -14.5q-21 0 -35.5 14.5t-14.5 34.5zM35 104l96 15l12 -191q-35 -4 -55 -5z" />
    <glyph glyph-name="less" unicode="&#x3c;" horiz-adv-x="633" 
d="M41 215v76l528 213l9 -69l-41.5 -17.5l-75 -32l-79.5 -34.5l-236 -101l432 -180l-10 -69z" />
    <glyph glyph-name="equal" unicode="=" horiz-adv-x="553" 
d="M48 306h456v-106h-456v106z" />
    <glyph glyph-name="greater" unicode="&#x3e;" horiz-adv-x="649" 
d="M586 291q0 -13 0.5 -38t0.5 -38l-528 -214l-9 69l432 180l-237 101l-79.5 34.5l-75 32l-41.5 17.5l10 69z" />
    <glyph glyph-name="question" unicode="?" horiz-adv-x="434" 
d="M256 52q0 -23 -16.5 -39.5t-40.5 -16.5q-23 0 -40 16.5t-17 39.5q0 24 17 40.5t40 16.5q24 0 40.5 -16.5t16.5 -40.5zM245 172l-110 -16q-27 64 -27 112t18 88t43 66t50.5 49t43.5 48.5t18 53.5q0 67 -68 67q-12 0 -24 -3.5t-20 -7.5t-19 -13.5t-15.5 -14l-15.5 -16
l-13 -13.5l-77 76q26 40 78 74t109 34q81 0 132 -46.5t51 -133.5q0 -50 -18 -88.5t-44 -62.5t-52 -45.5t-44 -49.5t-18 -62q0 -36 22 -96z" />
    <glyph glyph-name="at" unicode="@" horiz-adv-x="889" 
d="M515 329l18 72q4 15 4 31q0 38 -23.5 59.5t-57.5 21.5q-57 0 -97.5 -58t-40.5 -139q0 -98 79 -98q39 0 72 31t46 80zM515 253q-36 -48 -65.5 -64t-71.5 -16q-64 0 -98.5 37t-34.5 106q0 102 59 171t142 69q41 0 66 -14.5t42 -51.5l28 55l59 -3l-62 -249q-5 -15 -5 -27
q0 -39 44 -39q64 0 113.5 69.5t49.5 157.5q0 110 -81.5 176t-219.5 66q-157 0 -265 -104t-108 -248q0 -126 97.5 -208.5t241.5 -82.5q169 0 269 70l24 -32q-133 -99 -288 -99q-181 0 -294 100.5t-113 258.5q0 116 61.5 210t162 145.5t217.5 51.5q153 0 256 -85t103 -219
q0 -107 -69 -194t-171 -87q-32 0 -60 19.5t-29 60.5z" />
    <glyph glyph-name="A" unicode="A" horiz-adv-x="683" 
d="M667 0h-124q-56 154 -66 154h-272q-7 0 -9 -6l-56 -148h-124l281 750h87zM341 541q-2 0 -2 -4l-96 -264q-1 -1 -1 -4q0 -4 4 -4h189q6 0 6 5l-1 1v2l-96 264q-1 1 -1.5 2.5t-1.5 1.5z" />
    <glyph glyph-name="B" unicode="B" horiz-adv-x="545" 
d="M275 0h-227v750h193q91 0 150 -59t59 -145q0 -77 -50 -140q47 -30 72.5 -79t25.5 -107q0 -95 -63.5 -157.5t-159.5 -62.5zM172 116h101q54 0 81 33.5t27 74.5t-27.5 75t-80.5 34h-102q-6 -1 -6 -6v-204q0 -7 7 -7zM337 538q0 36 -25 66t-75 30h-65q-7 0 -7 -8v-180
q0 -7 6 -7h69q49 1 73 31.5t24 67.5z" />
    <glyph glyph-name="C" unicode="C" horiz-adv-x="704" 
d="M428 -8q-164 0 -273.5 106t-109.5 276q0 158 112.5 271t270.5 113q144 0 239 -82l-71 -94q-71 59 -169 59q-112 -1 -189 -78.5t-77 -188.5q0 -112 78 -189t189 -77q97 0 168 59l68 -91q-97 -84 -236 -84z" />
    <glyph glyph-name="D" unicode="D" horiz-adv-x="708" 
d="M171 116h115q110 0 184.5 75t74.5 184q0 110 -74 184t-183 74h-117q-6 0 -6 -5v-506q0 -6 6 -6zM48 0v750h238q156 0 265.5 -110.5t109.5 -264.5q0 -155 -109.5 -265t-265.5 -110h-238z" />
    <glyph glyph-name="E" unicode="E" horiz-adv-x="488" 
d="M165 313v-191q0 -6 6 -6h268v-116h-390v750h390v-117h-268q-6 0 -6 -5v-188q0 -5 6 -5h268v-117h-268q-6 0 -6 -5z" />
    <glyph glyph-name="F" unicode="F" horiz-adv-x="485" 
d="M48 0v750h392v-117h-269q-6 0 -6 -6v-186q0 -6 6 -6h269v-117h-269q-6 0 -6 -6v-312h-117z" />
    <glyph glyph-name="G" unicode="G" horiz-adv-x="792" 
d="M742 396v-254q-43 -65 -123 -107.5t-188 -42.5q-159 0 -271 112t-112 271t112 271t271 112q81 0 148.5 -29t108.5 -64l-75 -89q-34 29 -83.5 47t-98.5 18q-110 0 -188 -78t-78 -188q0 -111 79 -189t193 -78q62 0 111.5 21t74.5 53v98q-28 2 -46 2h-177v114h342z" />
    <glyph glyph-name="H" unicode="H" horiz-adv-x="614" 
d="M449 440v310h116v-750h-116v311q0 6 -6 6h-273q-6 0 -6 -6v-311h-116v750h116v-310q0 -6 6 -6h273q6 0 6 6z" />
    <glyph glyph-name="I" unicode="I" horiz-adv-x="213" 
d="M48 749h116v-749h-116v749z" />
    <glyph glyph-name="J" unicode="J" horiz-adv-x="437" 
d="M29 102l104 54q8 -22 27.5 -35t43.5 -13q33 0 56 23t23 57v563h117v-563q0 -82 -57 -139t-139 -57q-57 0 -104 30t-71 80z" />
    <glyph glyph-name="K" unicode="K" horiz-adv-x="527" 
d="M43 0v750h117v-328h1q-2 -3 1 1q3 3 10 13l198 314h133l-228 -363q-7 -11 -7 -13q4 -7 12.5 -20t9.5 -14l216 -340h-138l-204 323l-4 4v-327h-117z" />
    <glyph glyph-name="L" unicode="L" horiz-adv-x="474" 
d="M173 116h257v-116h-382v750h116v-625q0 -9 9 -9z" />
    <glyph glyph-name="M" unicode="M" horiz-adv-x="808" 
d="M403 193q11 28 25 67l171 489h161v-749h-116v550q0 1 -28.5 -80.5l-78 -220.5l-89.5 -249h-89l-193 553v-553h-118v749h159l171 -489z" />
    <glyph glyph-name="N" unicode="N" horiz-adv-x="679" 
d="M48 749h122l316 -502q18 -28 28 -41v543h117v-749h-123l-314 500l-15 20.5t-14 20.5q0 -9 -0.5 -29t-0.5 -31v-481h-116v749z" />
    <glyph glyph-name="O" unicode="O" horiz-adv-x="854" 
d="M44 375q0 159 112 271t271 112t271 -112t112 -271t-112 -271t-271 -112t-271 112t-112 271zM160 375q0 -110 78.5 -188.5t188.5 -78.5t188 78.5t78 188.5t-78 188t-188 78t-188.5 -78t-78.5 -188z" />
    <glyph glyph-name="P" unicode="P" horiz-adv-x="509" 
d="M165 626v-209q0 -6 7 -6h62q33 0 56.5 11.5t35.5 29.5t17 36t5 37q0 42 -26 75.5t-88 33.5h-62q-7 0 -7 -8zM48 0v750h199q95 0 156.5 -64.5t61.5 -160.5q0 -97 -61.5 -163.5t-156.5 -66.5h-76q-6 0 -6 -6v-289h-117z" />
    <glyph glyph-name="Q" unicode="Q" horiz-adv-x="854" 
d="M44 375q0 159 112 271t271 112t271 -112t112 -271q0 -141 -92 -249l58 -56l-86 -80l-60 60q-92 -58 -203 -58q-159 0 -271 112t-112 271zM160 375q0 -110 78.5 -188.5t188.5 -78.5q64 0 120 29l-83 87l82 79l89 -93q58 71 58 165q0 110 -78 188t-188 78t-188.5 -78
t-78.5 -188z" />
    <glyph glyph-name="R" unicode="R" horiz-adv-x="512" 
d="M159 626v-220q0 -7 8 -7h74q64 0 97 32t33 86q0 46 -29 81.5t-86 35.5h-89q-8 0 -8 -8zM403 0l-163 285q-3 6 -10 6h-65q-6 0 -6 -6v-285h-117v750h214q103 0 167 -67.5t64 -166.5q0 -89 -57 -152q-6 -7 -23.5 -20l-31.5 -23.5t-14 -11.5t0.5 -1t0.5 -1l176 -307h-135z
" />
    <glyph glyph-name="S" unicode="S" horiz-adv-x="505" 
d="M45 138l101 32q33 -63 102 -63q39 0 68.5 30t29.5 69q0 26 -9.5 46.5t-29.5 35t-35.5 23t-42.5 19.5q-93 39 -139 84t-46 129q0 93 60.5 153.5t151.5 60.5q57 0 107.5 -30.5t73.5 -82.5l-105 -51q-23 47 -80 47q-36 0 -63.5 -27.5t-27.5 -63.5q0 -21 6 -36.5t21 -28
t26 -19t35 -18.5q120 -52 166 -100.5t46 -140.5q0 -89 -62 -151.5t-149 -62.5h-4q-75 0 -130 42t-71 104z" />
    <glyph glyph-name="T" unicode="T" horiz-adv-x="556" 
d="M218 0v627q0 6 -6 6h-173v117h477v-117h-174l-1 -1h-1l-4 -2q-1 -1 -1 -5v-625h-117z" />
    <glyph glyph-name="U" unicode="U" horiz-adv-x="564" 
d="M46 213v536h117v-521q0 -50 36 -84t84 -34t82.5 33t34.5 80v526h117v-537q0 -92 -70 -155.5t-164 -63.5q-96 0 -166.5 64t-70.5 156z" />
    <glyph glyph-name="V" unicode="V" horiz-adv-x="652" 
d="M511 750h125l-267 -750h-87l-264 750h124l159 -475q23 -69 25 -69q9 23 25 69z" />
    <glyph glyph-name="W" unicode="W" horiz-adv-x="903" 
d="M671 0h-94q-104 402 -128 487l-125 -487h-91l-203 750h122l123 -494q1 -9 3 -9q9 31 61.5 245.5t64.5 257.5h94l123 -494l3 -9q2 0 3 3l124 500h122z" />
    <glyph glyph-name="X" unicode="X" horiz-adv-x="629" 
d="M387 368l230 -368h-139l-159 256q-1 3 -5 3q-2 0 -4 -3l-160 -256h-138l229 368q2 4 2 6t-2 6l-229 370h139l159 -258q2 -3 5 -3t4 3l159 258h139l-230 -370q-2 -4 -2 -6t2 -6z" />
    <glyph glyph-name="Y" unicode="Y" horiz-adv-x="558" 
d="M12 750h128l136 -324q2 -3 3 -3q3 0 4 3l135 323h127l-207 -479v-270h-117v270z" />
    <glyph glyph-name="Z" unicode="Z" horiz-adv-x="563" 
d="M367 622q2 2 2 6q0 5 -10 5h-315v117h473v-88l-320 -528q-6 -10 -6 -12q0 -6 10 -6h317v-116h-474v90l153 250z" />
    <glyph glyph-name="bracketleft" unicode="[" horiz-adv-x="313" 
d="M48 -147q-1 320 -1 960h220v-92h-76q-5 0 -15 -0.5t-14 -0.5q-1 -18 -1 -54v-666q0 -37 1 -54q9 -1 29 -1h76v-92h-219z" />
    <glyph glyph-name="backslash" unicode="\" horiz-adv-x="334" 
d="M303 11l-56 -17l-217 748l56 17z" />
    <glyph glyph-name="bracketright" unicode="]" horiz-adv-x="299" 
d="M260 813q0 -640 -1 -960h-219v92h103q3 38 3 78v619q0 42 -3 79h-103v92h220z" />
    <glyph glyph-name="asciicircum" unicode="^" horiz-adv-x="532" 
d="M266 624l-138 -259q-68 10 -101 14l203 371h72l203 -371q-73 -11 -100 -14z" />
    <glyph glyph-name="underscore" unicode="_" horiz-adv-x="651" 
d="M0 -64h651v-64h-651v64z" />
    <glyph glyph-name="grave" unicode="`" horiz-adv-x="303" 
d="M75 725l189 -79l-42 -74l-182 75q11 26 35 78z" />
    <glyph glyph-name="a" unicode="a" horiz-adv-x="584" 
d="M139 250q0 -62 43 -105t105 -43t105 43t43 105t-43 105t-105 43t-105 -43t-43 -105zM441 500h104v-500h-104v43q-68 -51 -154 -51q-107 0 -182.5 76t-75.5 182t75.5 182t182.5 76q84 0 154 -52v44z" />
    <glyph glyph-name="b" unicode="b" horiz-adv-x="597" 
d="M148 0h-107v701h111v-242q65 49 148 49q106 0 182 -76t76 -182t-76 -182t-182 -76q-83 0 -152 49v-41zM448 250q0 62 -43 105t-105 43t-105 -43t-43 -105t43 -105t105 -43t105 43t43 105z" />
    <glyph glyph-name="c" unicode="c" horiz-adv-x="553" 
d="M293 103q86 0 128 75l100 -44q-31 -65 -92.5 -103.5t-136.5 -38.5q-108 0 -183.5 75.5t-75.5 183.5q0 107 75.5 182t183.5 75q62 0 118 -30.5t92 -78.5l-84 -63q-50 61 -125 61q-61 0 -104 -42.5t-43 -103.5q0 -62 42.5 -105t104.5 -43z" />
    <glyph glyph-name="d" unicode="d" horiz-adv-x="585" 
d="M444 0v43q-66 -51 -151 -51q-107 0 -183 75.5t-76 182.5t76 182.5t183 75.5q81 0 148 -49v241h110v-700h-107zM145 250q0 -62 43 -105t105 -43t104.5 43t42.5 105t-42.5 105t-104.5 43t-105 -43t-43 -105z" />
    <glyph glyph-name="e" unicode="e" horiz-adv-x="537" 
d="M295 97q74 0 144 41l45 -83q-87 -63 -195 -63q-110 0 -184.5 74.5t-74.5 184.5q0 107 71.5 181.5t178.5 74.5q105 0 167 -69t62 -175q0 -17 -2 -53h-356q-3 0 -3 -3q11 -50 51.5 -80t95.5 -30zM276 405q-49 0 -88.5 -35t-39.5 -72q0 -2 4 -2h239l4 1q0 40 -32.5 74
t-86.5 34z" />
    <glyph glyph-name="f" unicode="f" horiz-adv-x="451" 
d="M106 496v67q0 62 37 100t99 38h89v-98h-60q-55 0 -55 -56v-51h145v-100h-145v-396h-110v396h-79v100h79z" />
    <glyph glyph-name="g" unicode="g" horiz-adv-x="594" 
d="M153 250q0 -62 43 -105t105 -43t105 43t43 105t-43 105t-105 43t-105 -43t-43 -105zM97 -154l76 70q46 -48 115 -48q63 0 108.5 44t48.5 106v23q-66 -48 -148 -48q-107 0 -183 75.5t-76 181.5q0 107 76 182.5t183 75.5q86 0 151 -50v42h107v-465q0 -111 -78.5 -190
t-190.5 -79q-114 0 -189 80z" />
    <glyph glyph-name="h" unicode="h" horiz-adv-x="524" 
d="M152 700v-222q51 30 109 30q97 0 159 -59t62 -154v-295h-111v288q0 44 -32.5 77t-77.5 33q-47 0 -78.5 -27.5t-31.5 -80.5v-290h-110v700h111z" />
    <glyph glyph-name="i" unicode="i" horiz-adv-x="191" 
d="M40 0v500h111v-500h-111zM96 554q-23 0 -39.5 16t-16.5 40q0 22 16.5 38t39.5 16q22 0 38.5 -16.5t16.5 -37.5q0 -23 -16 -39.5t-39 -16.5z" />
    <glyph glyph-name="j" unicode="j" horiz-adv-x="211" 
d="M67 610q0 22 16.5 38t39.5 16q21 0 38 -16.5t17 -37.5q0 -23 -16.5 -39.5t-38.5 -16.5q-24 0 -40 16t-16 40zM17 -234v111q1 0 6 0.5t7 1t7.5 1.5t7.5 2t6.5 3.5t6.5 5t4.5 6.5t3.5 9.5t1 11.5v583h110v-624q0 -111 -160 -111z" />
    <glyph glyph-name="k" unicode="k" horiz-adv-x="425" 
d="M152 726v-430q0 -3 2 -3q1 0 3 4l137 203h127l-148 -222l-16 -22l15 -25l148 -231h-127l-126 197l-13 20q-2 0 -2 -4v-213h-110v726h110z" />
    <glyph glyph-name="l" unicode="l" horiz-adv-x="194" 
d="M41 0v699h111v-699h-111z" />
    <glyph glyph-name="m" unicode="m" horiz-adv-x="854" 
d="M41 0v500h105v-27q48 35 115 35q101 0 165 -67q64 67 165 67q97 0 159 -59t62 -154v-295h-110v288q0 44 -33 77t-77 33t-77.5 -30t-33.5 -72v-296h-110v288q0 44 -32.5 77t-77.5 33q-47 0 -78 -26t-32 -78v-294h-110z" />
    <glyph glyph-name="n" unicode="n" horiz-adv-x="523" 
d="M41 0v500h104v-27q48 35 116 35q97 0 159 -59t62 -154v-295h-111v288q0 44 -32.5 77t-77.5 33q-47 0 -78 -26t-32 -79v-293h-110z" />
    <glyph glyph-name="o" unicode="o" horiz-adv-x="581" 
d="M145 251q0 -62 42.5 -105t104.5 -43t104.5 43t42.5 105q0 61 -43 103.5t-104 42.5t-104 -42.5t-43 -103.5zM33 251q0 107 75.5 182t183.5 75q106 0 181.5 -75t75.5 -182q0 -108 -75 -183.5t-182 -75.5q-108 0 -183.5 75.5t-75.5 183.5z" />
    <glyph glyph-name="p" unicode="p" horiz-adv-x="597" 
d="M41 -205v705h107v-42q68 50 152 50q106 0 182 -76t76 -182t-76 -182t-182 -76q-83 0 -148 49v-246h-111zM448 250q0 62 -43 105t-105 43t-105 -43t-43 -105t43 -105t105 -43t105 43t43 105z" />
    <glyph glyph-name="q" unicode="q" horiz-adv-x="585" 
d="M144 250q0 -62 43 -105t105 -43t105 43t43 105t-43 105t-105 43t-105 -43t-43 -105zM444 500h107v-705h-111v246q-64 -48 -148 -48q-107 0 -182.5 75.5t-75.5 181.5t76 182t182 76q86 0 152 -50v42z" />
    <glyph glyph-name="r" unicode="r" horiz-adv-x="354" 
d="M41 0v500h106v-29q44 34 123 37h50v-112h-46q-56 -1 -89 -26.5t-34 -76.5v-293h-110z" />
    <glyph glyph-name="s" unicode="s" horiz-adv-x="350" 
d="M317 136q0 -62 -42 -103t-103 -41q-47 0 -85.5 26.5t-54.5 65.5l81 52l13.5 -17.5t16 -12t26.5 -7.5q17 0 30 12.5t13 30.5q0 39 -79 83q-28 16 -45.5 28.5t-35 41.5t-17.5 66q0 63 41 105t104 42q41 0 75.5 -25t52.5 -62l-79 -53q-21 33 -49 33q-17 0 -28.5 -11
t-11.5 -28q0 -12 9 -23.5t19.5 -18.5t32 -19.5t33.5 -20.5q83 -57 83 -144z" />
    <glyph glyph-name="t" unicode="t" horiz-adv-x="425" 
d="M158 496v149h111v-149h129v-100h-129v-396h-111v396h-131v100h131z" />
    <glyph glyph-name="u" unicode="u" horiz-adv-x="521" 
d="M481 499v-499h-105v28q-46 -36 -115 -36q-97 0 -159 59.5t-62 154.5v293h110v-286q0 -45 33 -77.5t77 -32.5q47 0 78.5 26t31.5 78v292h111z" />
    <glyph glyph-name="v" unicode="v" horiz-adv-x="465" 
d="M333 499q20 0 59.5 0.5t59.5 0.5l-176 -500h-88l-175 500h119l39 -126l47 -150l12 -37q0 -2 2 -6q2 2 4.5 9.5t5.5 17.5t5 14z" />
    <glyph glyph-name="w" unicode="w" horiz-adv-x="730" 
d="M561 0h-94l-104 310l-58 -175q-8 -22 -17.5 -52.5l-16.5 -51.5t-11 -31h-94l-152 500h116q69 -251 90 -320q1 -2 1.5 -4t0.5 -4l1 -1q1 0 3.5 8t5.5 19t4 14l86 287h86l95 -316q1 -2 1.5 -4t1.5 -3v-2q1 0 2 1l9 40l80 285h117z" />
    <glyph glyph-name="x" unicode="x" horiz-adv-x="471" 
d="M305 243l154 -243h-133l-86 148l-5 5q-5 -3 -6 -6l-85 -147h-133l158 249l-3 6l-155 245h133l86 -149q1 -4 5 -6l5 6l86 149h132l-153 -244q-3 -2 -4 -7q2 -4 4 -6z" />
    <glyph glyph-name="y" unicode="y" horiz-adv-x="457" 
d="M450 501l-245 -707h-117l82 229q0 5 -1 9l-12 39l-150 429h119l34.5 -113t45.5 -142l21 -62q0 -3 2 -5q0 1 1.5 3.5t1.5 3.5l21 61l81 255h116z" />
    <glyph glyph-name="z" unicode="z" horiz-adv-x="426" 
d="M239 381q2 2 5 8q-1 4 -13 4h-192v107h345v-84l-94.5 -139.5t-108.5 -166.5q3 -3 14 -3h192v-107h-348v81q14 20 38.5 58t35.5 53l26 37z" />
    <glyph glyph-name="braceleft" unicode="{" horiz-adv-x="394" 
d="M63 292v96q52 4 75 36t23 98v127q0 66 11.5 101t44.5 56q38 22 117 22l1 -83q-47 -4 -64 -29.5t-17 -83.5v-128q0 -73 -21 -109t-84 -53q-4 0 -4 -2t4 -2q63 -17 84 -53t21 -109v-128q0 -59 17 -84t64 -29l-1 -83q-79 0 -117 22q-34 21 -45 55.5t-11 101.5v127
q0 66 -23 97.5t-75 36.5z" />
    <glyph glyph-name="bar" unicode="|" horiz-adv-x="191" 
d="M143 760v-764h-96v764h96z" />
    <glyph glyph-name="braceright" unicode="}" horiz-adv-x="405" 
d="M335 388v-96q-52 -5 -75 -36.5t-23 -97.5v-127q0 -67 -11 -101.5t-45 -55.5q-39 -22 -117 -22l-1 83q47 4 64 29t17 84v128q0 73 21 109t84 53q4 0 4 2t-4 2q-63 17 -84 53t-21 109v128q0 58 -17 83.5t-64 29.5v83q80 0 118 -22q33 -21 44.5 -56t11.5 -101v-127
q0 -66 23 -98t75 -36z" />
    <glyph glyph-name="asciitilde" unicode="~" horiz-adv-x="620" 
d="M61 181q-5 19 -16 77q7 19 47.5 43.5t100.5 24.5h6q37 -1 116 -29t99 -28h5q75 1 139 55l17 -71q-7 -20 -49 -46.5t-103 -26.5h-5q-33 0 -105 28t-111 30h-10q-51 0 -131 -57z" />
    <glyph glyph-name="exclamdown" unicode="&#xa1;" horiz-adv-x="196" 
d="M155 596v-600h-113v600h113zM155 694q0 -24 -17 -40.5t-40 -16.5t-40 16.5t-17 40.5q0 23 17 39.5t40 16.5t40 -16.5t17 -39.5z" />
    <glyph glyph-name="cent" unicode="&#xa2;" horiz-adv-x="555" 
d="M328 593v-89q103 -17 172 -105l-83 -61q-37 49 -89 61v-298q29 8 57.5 28.5t38.5 45.5l95 -41q-28 -57 -78 -93.5t-113 -45.5v-81h-100v86q-86 20 -141.5 90t-55.5 161q0 89 56 159t141 90v93h100zM136 251q0 -48 25 -85.5t67 -55.5v281q-42 -18 -67 -55.5t-25 -84.5z
" />
    <glyph glyph-name="sterling" unicode="&#xa3;" horiz-adv-x="616" 
d="M89 0v117h46q26 0 45.5 18.5t19.5 56.5q0 27 -26.5 80.5t-42.5 72.5h-74v92h43q-16 48 -16 88q0 99 66.5 166t166.5 67q108 0 180 -70l-88 -77q-26 29 -90 29q-49 0 -83 -31.5t-34 -75.5q0 -58 22 -95h195v-93h-159q57 -95 57 -149q0 -37 -27 -78h71q51 0 75.5 23.5
t26.5 73.5l110 -2q0 -105 -66.5 -159t-172.5 -54h-245z" />
    <glyph glyph-name="currency" unicode="&#xa4;" horiz-adv-x="664" 
d="M47 108l95 96q-45 63 -45 136q0 57 47 137l-98 97l50 50l98 -98q64 46 141 46q55 0 112 -34l20 -12l98 97l51 -49l-96 -96l12 -21q35 -60 35 -118t-45 -135l96 -96l-50 -51l-96 97q-58 -49 -142 -49q-57 0 -138 47l-16 -16l-80 -79zM332 489q-60 0 -104 -44.5t-44 -104.5
q0 -61 43.5 -105t104.5 -44t104.5 44t43.5 105q0 60 -44 104.5t-104 44.5z" />
    <glyph glyph-name="yen" unicode="&#xa5;" horiz-adv-x="637" 
d="M491 531h105v-73h-137l-44 -102h181v-74h-213q-4 -8 -5 -13v-269h-117v269l-6 13h-216v74h185l-45 102h-140v73h108l-95 219h127l137 -324q2 -3 3 -3q3 0 4 3l135 323h127z" />
    <glyph glyph-name="brokenbar" unicode="&#xa6;" horiz-adv-x="190" 
d="M47 454v316h96v-316h-96zM47 -11v315h96v-315h-96z" />
    <glyph glyph-name="section" unicode="&#xa7;" horiz-adv-x="606" 
d="M298 726q118 0 190 -63q-11 -40 -31 -120q-1 1 -10.5 9t-11.5 9.5l-11.5 9t-13.5 9.5t-13 8t-14.5 8t-15 6t-17 5.5t-17 3t-19.5 1.5q-39 0 -65.5 -20.5t-26.5 -57.5q0 -20 15.5 -36t35 -25t60.5 -26.5t69 -31.5q77 -32 119 -71t42 -97q0 -59 -26 -97.5t-91 -78.5
q28 -27 40 -52t12 -60q0 -77 -59 -125.5t-143 -48.5q-92 0 -155 41t-83 96l112 36q50 -55 113 -55q32 0 59 16.5t27 44.5q0 13 -3.5 24t-14 21t-18 16.5t-26.5 15.5l-29 13.5t-36 14.5l-36 14q-4 2 -10 4q-153 60 -153 180q0 53 22.5 89t76.5 82q-55 46 -55 110
q0 81 60.5 129.5t150.5 48.5zM228 195l138 -58q21 13 32 21.5t23.5 28t12.5 43.5q0 58 -87 93l-122 48l-18 -16q-41 -36 -41 -76q0 -54 62 -84z" />
    <glyph glyph-name="dieresis" unicode="&#xa8;" horiz-adv-x="384" 
d="M101 600q-23 0 -39 16t-16 39t16 38.5t39 15.5q22 0 38.5 -16t16.5 -38q0 -23 -16 -39t-39 -16zM282 600q-23 0 -39 16t-16 39t16 38.5t39 15.5t39 -16t16 -38q0 -23 -16 -39t-39 -16z" />
    <glyph glyph-name="copyright" unicode="&#xa9;" horiz-adv-x="812" 
d="M43 360q0 149 107.5 256t255.5 107q152 0 257 -106t105 -257q0 -149 -105.5 -255.5t-256.5 -106.5q-148 0 -255.5 107t-107.5 255zM95 360q0 -129 90.5 -219.5t220.5 -90.5q129 0 222 90.5t93 219.5t-92.5 220t-222.5 91t-220.5 -90.5t-90.5 -220.5zM419 153
q-89 0 -149.5 60.5t-60.5 146.5t60.5 147t149.5 61q77 0 128 -44l-38 -53q-35 31 -90 31q-61 0 -103 -41t-42 -100q0 -58 42.5 -100t101.5 -42q54 0 90 30l41 -52q-49 -44 -130 -44z" />
    <glyph glyph-name="ordfeminine" unicode="&#xaa;" horiz-adv-x="416" 
d="M107 552q0 -43 28.5 -71.5t71.5 -28.5q41 0 70 29t29 71t-29 71t-70 29q-43 0 -71.5 -29t-28.5 -71zM33 552q0 72 50.5 122.5t123.5 50.5q57 0 103 -35v30h71v-339q-22 8 -50 20l-21 12q-46 -35 -103 -35q-73 0 -123.5 51t-50.5 123z" />
    <glyph glyph-name="guillemotleft" unicode="&#xab;" horiz-adv-x="448" 
d="M336 68l-63.5 98l-44 68t-23.5 38l128 202l76 -52l-99 -151l97 -149zM165 68l-63.5 98l-44 68t-23.5 38l128 202l76 -52l-99 -151l97 -149z" />
    <glyph glyph-name="logicalnot" unicode="&#xac;" horiz-adv-x="597" 
d="M35 407h523v-329h-90v239h-433v90z" />
    <glyph glyph-name="registered" unicode="&#xae;" horiz-adv-x="852" 
d="M43 375q0 157 113 270t269 113q160 0 271.5 -112.5t111.5 -270.5t-111.5 -270.5t-271.5 -112.5q-156 0 -269 113t-113 270zM97 375q0 -137 96 -233t232 -96q138 0 236.5 96t98.5 233q0 136 -98.5 232.5t-236.5 96.5q-136 0 -232 -96.5t-96 -232.5zM570 152h-73l-31 61.5
l-36.5 71.5t-18.5 27q-17 16 -30 16q-3 0 -3 -3v-173h-65v446h93q72 0 112.5 -34.5t40.5 -98.5q0 -48 -22.5 -81t-61.5 -44q-2 0 -2 -4zM378 533v-141q1 -2 4 -2h46q33 0 49 23.5t16 51.5q0 27 -16 49.5t-49 22.5h-46q-4 0 -4 -4z" />
    <glyph glyph-name="macron" unicode="&#xaf;" horiz-adv-x="409" 
d="M47 718h314v-90h-314v90z" />
    <glyph glyph-name="degree" unicode="&#xb0;" horiz-adv-x="409" 
d="M43 563q0 67 47 114t114 47t114 -47t47 -114t-47 -114t-114 -47t-114 47t-47 114zM100 563q0 -43 30.5 -74t73.5 -31q44 0 74.5 31t30.5 74t-31 73.5t-74 30.5t-73.5 -30.5t-30.5 -73.5z" />
    <glyph glyph-name="plusminus" unicode="&#xb1;" horiz-adv-x="610" 
d="M260 370v145h88v-145h221v-88h-221v-143h-88v143h-219v88h219zM41 108h528v-90h-528v90z" />
    <glyph glyph-name="twosuperior" unicode="&#xb2;" horiz-adv-x="367" 
d="M53 300q0 14 -0.5 42t-0.5 42q4 5 84.5 79.5t100.5 99.5q23 28 23 52q0 29 -21 50.5t-51 21.5q-24 0 -42.5 -14t-26.5 -36l-66 22q14 43 51.5 70.5t83.5 27.5q59 0 101 -41.5t42 -100.5q0 -53 -54 -113t-141 -130q0 -2 7 -2h190v-70h-280z" />
    <glyph glyph-name="threesuperior" unicode="&#xb3;" horiz-adv-x="361" 
d="M115 655l-39 47q28 57 99 57q41 0 71.5 -31.5t30.5 -76.5t-27 -77q-2 -2 -2 -3l5 -3q70 -44 70 -128q0 -60 -42 -102.5t-102 -42.5q-52 0 -94.5 34.5t-46.5 85.5q42 6 67 10q7 -27 27 -43.5t47 -16.5q31 0 53 23t22 55q0 31 -20.5 56t-49.5 30q-2 1 -10.5 2.5t-13.5 3.5
q0 9 -0.5 27.5t-0.5 27.5l21 6q20 15 20 34q0 5 -2 11q6 6 6 16q0 33 -30 33q-34 0 -59 -35z" />
    <glyph glyph-name="acute" unicode="&#xb4;" horiz-adv-x="304" 
d="M40 646l189 79q11 -26 35 -78l-182 -75z" />
    <glyph glyph-name="mu" unicode="&#xb5;" horiz-adv-x="547" 
d="M47 -216v753h114v-318q0 -48 34 -80.5t79 -32.5t79 32t34 79v320h114v-538l-115 49q-38 -56 -112 -56q-68 0 -113 43v-251h-114z" />
    <glyph glyph-name="mu" unicode="&#x3bc;" horiz-adv-x="547" 
d="M47 -216v753h114v-318q0 -48 34 -80.5t79 -32.5t79 32t34 79v320h114v-538l-115 49q-38 -56 -112 -56q-68 0 -113 43v-251h-114z" />
    <glyph glyph-name="paragraph" unicode="&#xb6;" horiz-adv-x="614" 
d="M267 -212v575q-107 1 -167.5 46t-60.5 125q0 100 64.5 139t181.5 39h287v-924h-102v823h-101v-823h-102z" />
    <glyph glyph-name="periodcentered" unicode="&#xb7;" horiz-adv-x="189" 
d="M96 328q-22 0 -37 14.5t-15 35.5t15 36t37 15q19 0 34 -15.5t15 -35.5t-14.5 -35t-34.5 -15z" />
    <glyph glyph-name="cedilla" unicode="&#xb8;" horiz-adv-x="283" 
d="M126 0h52l-39 -51q3 0 11 1.5t16 1.5q33 0 54 -20.5t21 -55.5q0 -45 -34.5 -69.5t-76.5 -24.5q-49 0 -88 34q10 28 14 42q37 -16 70 -16q16 0 27 8.5t11 25.5q0 16 -11.5 25t-24.5 9q-2 0 -8.5 -1t-10.5 -1l-43 8z" />
    <glyph glyph-name="onesuperior" unicode="&#xb9;" horiz-adv-x="197" 
d="M-3 685v65h139v-450h-70v380q0 5 -6 5h-63z" />
    <glyph glyph-name="ordmasculine" unicode="&#xba;" horiz-adv-x="412" 
d="M108 551q0 -42 28.5 -70.5t70.5 -28.5q41 0 69.5 28.5t28.5 70.5q0 41 -28.5 69.5t-69.5 28.5q-42 0 -70.5 -28.5t-28.5 -69.5zM33 551q0 71 50.5 121.5t123.5 50.5q71 0 121.5 -50.5t50.5 -121.5q0 -73 -50.5 -123.5t-121.5 -50.5q-73 0 -123.5 50.5t-50.5 123.5z" />
    <glyph glyph-name="guillemotright" unicode="&#xbb;" horiz-adv-x="457" 
d="M278 474l131 -203q0 -2 -129 -203l-75 52l98 150l-97 150zM107 474l131 -203q0 -2 -129 -203l-75 52l98 150l-97 150z" />
    <glyph glyph-name="onequarter" unicode="&#xbc;" horiz-adv-x="780" 
d="M402 82v72l110 174q82 132 101 159h71v-306q0 -2 -0.5 -7t0 -7.5t1.5 -5.5t4.5 -4t8.5 -1h34v-76h-34q-5 0 -8.5 -1t-4.5 -3.5t-1.5 -4.5t0 -6t0.5 -6v-59h-75v78q0 4 -4 4h-203zM273 -4q-6 1 -18 3.5l-21.5 4.5t-17.5 4l216 749l56 -15zM31 681v70h150v-489h-76v412
q0 7 -5 7h-69zM609 158q0 15 -0.5 54t-0.5 60v83q-1 -1 -1 -3l-121 -195q0 -3 2 -3h116q5 0 5 4z" />
    <glyph glyph-name="onehalf" unicode="&#xbd;" horiz-adv-x="802" 
d="M31 681v70h150v-489h-76v412q0 7 -5 7h-69zM273 -4q-6 1 -18 3.5l-21.5 4.5t-17.5 4l216 749l56 -15zM460 0v90q5 5 48.5 45l88.5 82.5t60 63.5q25 28 25 56q0 24 -23 50.5t-54 26.5q-25 0 -45.5 -15t-28.5 -39l-70 24q15 46 55 75t89 29q63 0 108 -44.5t45 -106.5
q0 -47 -30 -87.5t-102 -104.5l-49 -43l-28 -25q0 -2 7 -2h204v-75h-300z" />
    <glyph glyph-name="threequarters" unicode="&#xbe;" horiz-adv-x="879" 
d="M497 82v72l105 166l40.5 64l40 64t25.5 39h71v-306q0 -2 -0.5 -7t0 -7.5t1.5 -5.5t4.5 -4t8.5 -1h34v-76h-34q-5 0 -8.5 -1t-4.5 -3.5t-1.5 -4.5t0 -6t0.5 -6v-59h-75v78q0 4 -4 4h-203zM115 639l-42 51q35 61 107 61q43 0 76.5 -32.5t33.5 -79.5q0 -51 -32 -91
q81 -49 81 -139q0 -65 -45.5 -110.5t-109.5 -45.5q-56 0 -102.5 38t-48.5 91l72 10q7 -28 28.5 -46t50.5 -18q33 0 56.5 24.5t23.5 59.5q0 33 -22 60t-53 32l-25 6l-2 59q1 1 5.5 3t6 3l5.5 3.5t6 4t5 4t5 5l4.5 5.5t4 7t2.5 8q10 7 10 24t-10 29t-27 12q-23 0 -45 -18z
M368 -4l-57 12l216 749l56 -15zM704 158q0 15 -0.5 54t-0.5 60v83q-1 -1 -1 -3l-121 -195q0 -3 2 -3h116q5 0 5 4z" />
    <glyph glyph-name="questiondown" unicode="&#xbf;" horiz-adv-x="434" 
d="M172 700q0 23 16.5 39.5t40.5 16.5q23 0 40 -16.5t17 -39.5q0 -24 -17 -40.5t-40 -16.5q-24 0 -40.5 16.5t-16.5 40.5zM183 580l110 16q27 -64 27 -112t-18 -88t-43 -66t-50.5 -49t-43.5 -48.5t-18 -53.5q0 -67 68 -67q12 0 24 3.5t20 7.5t19 13.5t15.5 14l15.5 16
l13 13.5l77 -76q-26 -40 -78 -74t-109 -34q-81 0 -132 46.5t-51 133.5q0 50 18 88.5t44 62.5t52 45.5t44 49.5t18 62q0 36 -22 96z" />
    <glyph glyph-name="Agrave" unicode="&#xc0;" horiz-adv-x="683" 
d="M667 0h-124q-56 154 -66 154h-272q-7 0 -9 -6l-56 -148h-124l281 750h87zM341 541q-2 0 -2 -4l-96 -264q-1 -1 -1 -4q0 -4 4 -4h189q6 0 6 5l-1 1v2l-96 264q-1 1 -1.5 2.5t-1.5 1.5zM264 925l189 -79l-42 -74l-182 75q11 26 35 78z" />
    <glyph glyph-name="Aacute" unicode="&#xc1;" horiz-adv-x="683" 
d="M667 0h-124q-56 154 -66 154h-272q-7 0 -9 -6l-56 -148h-124l281 750h87zM341 541q-2 0 -2 -4l-96 -264q-1 -1 -1 -4q0 -4 4 -4h189q6 0 6 5l-1 1v2l-96 264q-1 1 -1.5 2.5t-1.5 1.5zM229 846l189 79q11 -26 35 -78l-182 -75z" />
    <glyph glyph-name="Acircumflex" unicode="&#xc2;" horiz-adv-x="683" 
d="M667 0h-124q-56 154 -66 154h-272q-7 0 -9 -6l-56 -148h-124l281 750h87zM341 541q-2 0 -2 -4l-96 -264q-1 -1 -1 -4q0 -4 4 -4h189q6 0 6 5l-1 1v2l-96 264q-1 1 -1.5 2.5t-1.5 1.5zM206 864l134 54l135 -56l-33 -76q-28 8 -102 42q-81 -35 -101 -40z" />
    <glyph glyph-name="Atilde" unicode="&#xc3;" horiz-adv-x="683" 
d="M667 0h-124q-56 154 -66 154h-272q-7 0 -9 -6l-56 -148h-124l281 750h87zM341 541q-2 0 -2 -4l-96 -264q-1 -1 -1 -4q0 -4 4 -4h189q6 0 6 5l-1 1v2l-96 264q-1 1 -1.5 2.5t-1.5 1.5zM188 821l-14 79q43 46 98 46q24 0 68 -15t61 -15q41 0 92 40l15 -72q-39 -56 -93 -56
q-23 0 -71 16t-69 16q-51 0 -87 -39z" />
    <glyph glyph-name="Adieresis" unicode="&#xc4;" horiz-adv-x="683" 
d="M667 0h-124q-56 154 -66 154h-272q-7 0 -9 -6l-56 -148h-124l281 750h87zM341 541q-2 0 -2 -4l-96 -264q-1 -1 -1 -4q0 -4 4 -4h189q6 0 6 5l-1 1v2l-96 264q-1 1 -1.5 2.5t-1.5 1.5zM250 800q-23 0 -39 16t-16 39t16 38.5t39 15.5q22 0 38.5 -16t16.5 -38
q0 -23 -16.5 -39t-38.5 -16zM431 800q-23 0 -39 16t-16 39t16 38.5t39 15.5t39 -16t16 -38q0 -23 -16 -39t-39 -16z" />
    <glyph glyph-name="Aring" unicode="&#xc5;" horiz-adv-x="683" 
d="M667 0h-124q-56 154 -66 154h-272q-7 0 -9 -6l-56 -148h-124l281 750h87zM341 541q-2 0 -2 -4l-96 -264q-1 -1 -1 -4q0 -4 4 -4h189q6 0 6 5l-1 1v2l-96 264q-1 1 -1.5 2.5t-1.5 1.5zM341 768q-30 0 -50 20t-20 50t20.5 50t49.5 20q30 0 50.5 -20.5t20.5 -49.5
q0 -30 -20.5 -50t-50.5 -20zM341 794q18 0 31 12.5t13 31.5q0 18 -13 30.5t-31 12.5q-19 0 -31 -12.5t-12 -30.5q0 -19 12 -31.5t31 -12.5z" />
    <glyph glyph-name="AE" unicode="&#xc6;" horiz-adv-x="850" 
d="M536 313v-191q0 -6 6 -6h267v-116h-390v154h-201q-8 0 -9 -6l-69 -148h-124l328 750h465v-117h-267q-6 0 -6 -5v-188q0 -5 6 -5h267v-117h-267q-6 0 -6 -5zM419 265v343q0 5 -0.5 13t-0.5 12q-2 0 -2 -2l-1 -1l-156 -357q-1 -1 -1 -4q0 -4 4 -4h157z" />
    <glyph glyph-name="Ccedilla" unicode="&#xc7;" horiz-adv-x="704" 
d="M336 0h9q-133 26 -216.5 126.5t-83.5 247.5q0 158 112.5 271t270.5 113q144 0 239 -82l-71 -94q-71 59 -169 59q-112 -1 -189 -78.5t-77 -188.5q0 -112 78 -189t189 -77q97 0 168 59l68 -91q-97 -84 -236 -84q-15 0 -45 2l-34 -45q3 0 11 1.5t16 1.5q33 0 54 -20.5
t21 -55.5q0 -45 -34.5 -69.5t-76.5 -24.5q-49 0 -88 34q10 28 14 42q37 -16 70 -16q16 0 27 8.5t11 25.5q0 16 -11.5 25t-24.5 9q-2 0 -8.5 -1t-10.5 -1l-43 8z" />
    <glyph glyph-name="Egrave" unicode="&#xc8;" horiz-adv-x="488" 
d="M165 313v-191q0 -6 6 -6h268v-116h-390v750h390v-117h-268q-6 0 -6 -5v-188q0 -5 6 -5h268v-117h-268q-6 0 -6 -5zM167 925l189 -79l-42 -74l-182 75q11 26 35 78z" />
    <glyph glyph-name="Eacute" unicode="&#xc9;" horiz-adv-x="488" 
d="M165 313v-191q0 -6 6 -6h268v-116h-390v750h390v-117h-268q-6 0 -6 -5v-188q0 -5 6 -5h268v-117h-268q-6 0 -6 -5zM132 846l189 79q11 -26 35 -78l-182 -75z" />
    <glyph glyph-name="Ecircumflex" unicode="&#xca;" horiz-adv-x="488" 
d="M165 313v-191q0 -6 6 -6h268v-116h-390v750h390v-117h-268q-6 0 -6 -5v-188q0 -5 6 -5h268v-117h-268q-6 0 -6 -5zM109 864l134 54l135 -56l-33 -76q-28 8 -102 42q-81 -35 -101 -40z" />
    <glyph glyph-name="Edieresis" unicode="&#xcb;" horiz-adv-x="488" 
d="M165 313v-191q0 -6 6 -6h268v-116h-390v750h390v-117h-268q-6 0 -6 -5v-188q0 -5 6 -5h268v-117h-268q-6 0 -6 -5zM153 800q-23 0 -39 16t-16 39t16 38.5t39 15.5q22 0 38.5 -16t16.5 -38q0 -23 -16 -39t-39 -16zM334 800q-23 0 -39 16t-16 39t16 38.5t39 15.5t39 -16
t16 -38q0 -23 -16 -39t-39 -16z" />
    <glyph glyph-name="Igrave" unicode="&#xcc;" horiz-adv-x="213" 
d="M48 749h116v-749h-116v749zM31 925l189 -79l-42 -74l-182 75q11 26 35 78z" />
    <glyph glyph-name="Iacute" unicode="&#xcd;" horiz-adv-x="213" 
d="M48 749h116v-749h-116v749zM-4 846l189 79q11 -26 35 -78l-182 -75z" />
    <glyph glyph-name="Icircumflex" unicode="&#xce;" horiz-adv-x="213" 
d="M48 749h116v-749h-116v749zM-27 864l134 54l135 -56l-33 -76q-28 8 -102 42q-81 -35 -101 -40z" />
    <glyph glyph-name="Idieresis" unicode="&#xcf;" horiz-adv-x="213" 
d="M48 749h116v-749h-116v749zM17 800q-23 0 -39 16t-16 39t16 38.5t39 15.5q22 0 38.5 -16t16.5 -38q0 -23 -16 -39t-39 -16zM198 800q-23 0 -39 16t-16 39t16 38.5t39 15.5t39 -16t16 -38q0 -23 -16 -39t-39 -16z" />
    <glyph glyph-name="Eth" unicode="&#xd0;" horiz-adv-x="813" 
d="M157 0v305h-115v102h115v343h238q156 0 265.5 -110.5t109.5 -264.5q0 -155 -109.5 -265t-265.5 -110h-238zM274 407h115v-102h-115v-183q0 -6 6 -6h115q109 0 184 75t75 184q0 110 -74 184t-183 74h-117q-6 0 -6 -5v-221z" />
    <glyph glyph-name="Ntilde" unicode="&#xd1;" horiz-adv-x="679" 
d="M48 749h122l316 -502q18 -28 28 -41v543h117v-749h-123l-314 500l-15 20.5t-14 20.5q0 -9 -0.5 -29t-0.5 -31v-481h-116v749zM186 821l-14 79q43 46 98 46q24 0 68 -15t61 -15q41 0 92 40l15 -72q-39 -56 -93 -56q-23 0 -71 16t-69 16q-51 0 -87 -39z" />
    <glyph glyph-name="Ograve" unicode="&#xd2;" horiz-adv-x="854" 
d="M44 375q0 159 112 271t271 112t271 -112t112 -271t-112 -271t-271 -112t-271 112t-112 271zM160 375q0 -110 78.5 -188.5t188.5 -78.5t188 78.5t78 188.5t-78 188t-188 78t-188.5 -78t-78.5 -188zM350 925l189 -79l-42 -74l-182 75q11 26 35 78z" />
    <glyph glyph-name="Oacute" unicode="&#xd3;" horiz-adv-x="854" 
d="M44 375q0 159 112 271t271 112t271 -112t112 -271t-112 -271t-271 -112t-271 112t-112 271zM160 375q0 -110 78.5 -188.5t188.5 -78.5t188 78.5t78 188.5t-78 188t-188 78t-188.5 -78t-78.5 -188zM315 846l189 79q11 -26 35 -78l-182 -75z" />
    <glyph glyph-name="Ocircumflex" unicode="&#xd4;" horiz-adv-x="854" 
d="M44 375q0 159 112 271t271 112t271 -112t112 -271t-112 -271t-271 -112t-271 112t-112 271zM160 375q0 -110 78.5 -188.5t188.5 -78.5t188 78.5t78 188.5t-78 188t-188 78t-188.5 -78t-78.5 -188zM292 864l134 54l135 -56l-33 -76q-28 8 -102 42q-81 -35 -101 -40z" />
    <glyph glyph-name="Otilde" unicode="&#xd5;" horiz-adv-x="854" 
d="M44 375q0 159 112 271t271 112t271 -112t112 -271t-112 -271t-271 -112t-271 112t-112 271zM160 375q0 -110 78.5 -188.5t188.5 -78.5t188 78.5t78 188.5t-78 188t-188 78t-188.5 -78t-78.5 -188zM273 821l-14 79q43 46 98 46q24 0 68 -15t61 -15q41 0 92 40l15 -72
q-39 -56 -93 -56q-23 0 -71 16t-69 16q-51 0 -87 -39z" />
    <glyph glyph-name="Odieresis" unicode="&#xd6;" horiz-adv-x="854" 
d="M44 375q0 159 112 271t271 112t271 -112t112 -271t-112 -271t-271 -112t-271 112t-112 271zM160 375q0 -110 78.5 -188.5t188.5 -78.5t188 78.5t78 188.5t-78 188t-188 78t-188.5 -78t-78.5 -188zM336 800q-23 0 -39 16t-16 39t16 38.5t39 15.5q22 0 38.5 -16t16.5 -38
q0 -23 -16.5 -39t-38.5 -16zM517 800q-23 0 -39 16t-16 39t16 38.5t39 15.5t39 -16t16 -38q0 -23 -16 -39t-39 -16z" />
    <glyph glyph-name="multiply" unicode="&#xd7;" horiz-adv-x="539" 
d="M214 254l-143 143l62 62l143 -143l145 146l63 -62l-146 -146l144 -144l-62 -63l-144 145l-146 -146l-63 62z" />
    <glyph glyph-name="Oslash" unicode="&#xd8;" horiz-adv-x="852" 
d="M330 -48h-64l19 66q-108 43 -175 139.5t-67 217.5q0 159 112 271t271 112q31 0 71 -7l16 51h64l-20 -68q112 -40 182 -138.5t70 -220.5q0 -159 -112 -271t-271 -112q-39 0 -82 8zM426 108q110 0 188 78.5t78 188.5q0 83 -46.5 150t-121.5 97l-147 -509q25 -5 49 -5z
M159 375q0 -80 44 -146t115 -98l147 507q-19 3 -39 3q-110 0 -188.5 -78t-78.5 -188z" />
    <glyph glyph-name="Ugrave" unicode="&#xd9;" horiz-adv-x="564" 
d="M46 213v536h117v-521q0 -50 36 -84t84 -34t82.5 33t34.5 80v526h117v-537q0 -92 -70 -155.5t-164 -63.5q-96 0 -166.5 64t-70.5 156zM204 925l189 -79l-42 -74l-182 75q11 26 35 78z" />
    <glyph glyph-name="Uacute" unicode="&#xda;" horiz-adv-x="564" 
d="M46 213v536h117v-521q0 -50 36 -84t84 -34t82.5 33t34.5 80v526h117v-537q0 -92 -70 -155.5t-164 -63.5q-96 0 -166.5 64t-70.5 156zM169 846l189 79q11 -26 35 -78l-182 -75z" />
    <glyph glyph-name="Ucircumflex" unicode="&#xdb;" horiz-adv-x="564" 
d="M46 213v536h117v-521q0 -50 36 -84t84 -34t82.5 33t34.5 80v526h117v-537q0 -92 -70 -155.5t-164 -63.5q-96 0 -166.5 64t-70.5 156zM147 864l134 54l135 -56l-33 -76q-28 8 -102 42q-81 -35 -101 -40z" />
    <glyph glyph-name="Udieresis" unicode="&#xdc;" horiz-adv-x="564" 
d="M46 213v536h117v-521q0 -50 36 -84t84 -34t82.5 33t34.5 80v526h117v-537q0 -92 -70 -155.5t-164 -63.5q-96 0 -166.5 64t-70.5 156zM191 800q-23 0 -39 16t-16 39t16 38.5t39 15.5q22 0 38.5 -16t16.5 -38q0 -23 -16 -39t-39 -16zM372 800q-23 0 -39 16t-16 39t16 38.5
t39 15.5t39 -16t16 -38q0 -23 -16 -39t-39 -16z" />
    <glyph glyph-name="Yacute" unicode="&#xdd;" horiz-adv-x="558" 
d="M12 750h128l136 -324q2 -3 3 -3q3 0 4 3l135 323h127l-207 -479v-270h-117v270zM167 846l189 79q11 -26 35 -78l-182 -75z" />
    <glyph glyph-name="Thorn" unicode="&#xde;" horiz-adv-x="667" 
d="M164 489v-211q0 -5 7 -5h62q33 0 56.5 11.5t35.5 29.5t17 36t5 37q0 42 -26 75.5t-88 33.5h-62q-7 0 -7 -7zM47 0v750h117v-139q17 0 47 0.5t35 0.5q95 0 156.5 -64.5t61.5 -160.5q0 -97 -61.5 -163.5t-156.5 -66.5h-76q-6 0 -6 -6v-151h-117z" />
    <glyph glyph-name="germandbls" unicode="&#xdf;" horiz-adv-x="538" 
d="M225 332v110q1 0 9 0.5t9 0.5q49 8 70.5 36.5t21.5 63.5t-24 63t-66 28h-4q-30 0 -53.5 -29t-23.5 -78v-527h-117v528q0 97 52.5 159.5t135.5 62.5h10q93 0 148.5 -58.5t55.5 -145.5q0 -50 -13 -81t-38 -60q46 -25 72.5 -77t26.5 -112q0 -95 -66 -155.5t-163 -60.5h-65
v116h67q61 0 85.5 33t24.5 75q0 47 -38.5 77.5t-94.5 30.5h-22z" />
    <glyph glyph-name="agrave" unicode="&#xe0;" horiz-adv-x="584" 
d="M139 250q0 -62 43 -105t105 -43t105 43t43 105t-43 105t-105 43t-105 -43t-43 -105zM441 500h104v-500h-104v43q-68 -51 -154 -51q-107 0 -182.5 76t-75.5 182t75.5 182t182.5 76q84 0 154 -52v44zM214 725l189 -79l-42 -74l-182 75q11 26 35 78z" />
    <glyph glyph-name="aacute" unicode="&#xe1;" horiz-adv-x="584" 
d="M139 250q0 -62 43 -105t105 -43t105 43t43 105t-43 105t-105 43t-105 -43t-43 -105zM441 500h104v-500h-104v43q-68 -51 -154 -51q-107 0 -182.5 76t-75.5 182t75.5 182t182.5 76q84 0 154 -52v44zM179 646l189 79q11 -26 35 -78l-182 -75z" />
    <glyph glyph-name="acircumflex" unicode="&#xe2;" horiz-adv-x="584" 
d="M139 250q0 -62 43 -105t105 -43t105 43t43 105t-43 105t-105 43t-105 -43t-43 -105zM441 500h104v-500h-104v43q-68 -51 -154 -51q-107 0 -182.5 76t-75.5 182t75.5 182t182.5 76q84 0 154 -52v44zM157 664l134 54l135 -56l-33 -76q-28 8 -102 42q-81 -35 -101 -40z" />
    <glyph glyph-name="atilde" unicode="&#xe3;" horiz-adv-x="584" 
d="M139 250q0 -62 43 -105t105 -43t105 43t43 105t-43 105t-105 43t-105 -43t-43 -105zM441 500h104v-500h-104v43q-68 -51 -154 -51q-107 0 -182.5 76t-75.5 182t75.5 182t182.5 76q84 0 154 -52v44zM138 621l-14 79q43 46 98 46q24 0 68 -15t61 -15q41 0 92 40l15 -72
q-39 -56 -93 -56q-23 0 -71 16t-69 16q-51 0 -87 -39z" />
    <glyph glyph-name="adieresis" unicode="&#xe4;" horiz-adv-x="584" 
d="M139 250q0 -62 43 -105t105 -43t105 43t43 105t-43 105t-105 43t-105 -43t-43 -105zM441 500h104v-500h-104v43q-68 -51 -154 -51q-107 0 -182.5 76t-75.5 182t75.5 182t182.5 76q84 0 154 -52v44zM201 600q-23 0 -39 16t-16 39t16 38.5t39 15.5q22 0 38.5 -16t16.5 -38
q0 -23 -16 -39t-39 -16zM382 600q-23 0 -39 16t-16 39t16 38.5t39 15.5t39 -16t16 -38q0 -23 -16 -39t-39 -16z" />
    <glyph glyph-name="aring" unicode="&#xe5;" horiz-adv-x="584" 
d="M139 250q0 -62 43 -105t105 -43t105 43t43 105t-43 105t-105 43t-105 -43t-43 -105zM441 500h104v-500h-104v43q-68 -51 -154 -51q-107 0 -182.5 76t-75.5 182t75.5 182t182.5 76q84 0 154 -52v44zM291 568q-30 0 -50 20t-20 50t20.5 50t49.5 20q30 0 50.5 -20.5
t20.5 -49.5q0 -30 -20.5 -50t-50.5 -20zM291 594q18 0 31 12.5t13 31.5q0 18 -13 30.5t-31 12.5q-19 0 -31 -12.5t-12 -30.5q0 -19 12 -31.5t31 -12.5z" />
    <glyph glyph-name="ae" unicode="&#xe6;" horiz-adv-x="949" 
d="M703 97q74 0 144 41l45 -83q-87 -63 -195 -63q-86 0 -152 47v-39h-105v43q-66 -51 -153 -51q-107 0 -182.5 76t-75.5 182t75.5 182t182.5 76q83 0 153 -52v44h105v-37q63 44 143 44q105 0 167 -69t62 -175q0 -17 -2 -53h-356q-3 0 -3 -3q11 -50 51.5 -80t95.5 -30z
M139 250q0 -62 43 -105t105 -43t105 43t43 105t-43 105t-105 43t-105 -43t-43 -105zM684 405q-49 0 -88.5 -35t-39.5 -72q0 -2 4 -2h239l4 1q0 40 -32.5 74t-86.5 34z" />
    <glyph glyph-name="ccedilla" unicode="&#xe7;" horiz-adv-x="553" 
d="M293 103q86 0 128 75l100 -44q-29 -62 -86.5 -99.5t-128.5 -41.5l-33 -44q3 0 11 1.5t16 1.5q33 0 54 -20.5t21 -55.5q0 -45 -34.5 -69.5t-76.5 -24.5q-49 0 -88 34q10 28 14 42q37 -16 70 -16q16 0 27 8.5t11 25.5q0 16 -11.5 25t-24.5 9q-2 0 -8.5 -1t-10.5 -1l-43 8
l56 79q-96 13 -159.5 85.5t-63.5 170.5q0 107 75.5 182t183.5 75q62 0 118 -30.5t92 -78.5l-84 -63q-50 61 -125 61q-61 0 -104 -42.5t-43 -103.5q0 -62 42.5 -105t104.5 -43z" />
    <glyph glyph-name="egrave" unicode="&#xe8;" horiz-adv-x="537" 
d="M295 97q74 0 144 41l45 -83q-87 -63 -195 -63q-110 0 -184.5 74.5t-74.5 184.5q0 107 71.5 181.5t178.5 74.5q105 0 167 -69t62 -175q0 -17 -2 -53h-356q-3 0 -3 -3q11 -50 51.5 -80t95.5 -30zM276 405q-49 0 -88.5 -35t-39.5 -72q0 -2 4 -2h239l4 1q0 40 -32.5 74
t-86.5 34zM191 725l189 -79l-42 -74l-182 75q11 26 35 78z" />
    <glyph glyph-name="eacute" unicode="&#xe9;" horiz-adv-x="537" 
d="M295 97q74 0 144 41l45 -83q-87 -63 -195 -63q-110 0 -184.5 74.5t-74.5 184.5q0 107 71.5 181.5t178.5 74.5q105 0 167 -69t62 -175q0 -17 -2 -53h-356q-3 0 -3 -3q11 -50 51.5 -80t95.5 -30zM276 405q-49 0 -88.5 -35t-39.5 -72q0 -2 4 -2h239l4 1q0 40 -32.5 74
t-86.5 34zM156 646l189 79q11 -26 35 -78l-182 -75z" />
    <glyph glyph-name="ecircumflex" unicode="&#xea;" horiz-adv-x="537" 
d="M295 97q74 0 144 41l45 -83q-87 -63 -195 -63q-110 0 -184.5 74.5t-74.5 184.5q0 107 71.5 181.5t178.5 74.5q105 0 167 -69t62 -175q0 -17 -2 -53h-356q-3 0 -3 -3q11 -50 51.5 -80t95.5 -30zM276 405q-49 0 -88.5 -35t-39.5 -72q0 -2 4 -2h239l4 1q0 40 -32.5 74
t-86.5 34zM133 664l134 54l135 -56l-33 -76q-28 8 -102 42q-81 -35 -101 -40z" />
    <glyph glyph-name="edieresis" unicode="&#xeb;" horiz-adv-x="537" 
d="M295 97q74 0 144 41l45 -83q-87 -63 -195 -63q-110 0 -184.5 74.5t-74.5 184.5q0 107 71.5 181.5t178.5 74.5q105 0 167 -69t62 -175q0 -17 -2 -53h-356q-3 0 -3 -3q11 -50 51.5 -80t95.5 -30zM276 405q-49 0 -88.5 -35t-39.5 -72q0 -2 4 -2h239l4 1q0 40 -32.5 74
t-86.5 34zM178 600q-23 0 -39 16t-16 39t16 38.5t39 15.5q22 0 38.5 -16t16.5 -38q0 -23 -16.5 -39t-38.5 -16zM359 600q-23 0 -39 16t-16 39t16 38.5t39 15.5t39 -16t16 -38q0 -23 -16 -39t-39 -16z" />
    <glyph glyph-name="igrave" unicode="&#xec;" horiz-adv-x="187" 
d="M18 725l189 -79l-42 -74l-182 75q11 26 35 78zM42 0v500h103v-500h-103z" />
    <glyph glyph-name="iacute" unicode="&#xed;" horiz-adv-x="187" 
d="M-17 646l189 79q11 -26 35 -78l-182 -75zM42 0v500h103v-500h-103z" />
    <glyph glyph-name="icircumflex" unicode="&#xee;" horiz-adv-x="187" 
d="M42 0v500h103v-500h-103zM-40 664l134 54l135 -56l-33 -76q-28 8 -102 42q-81 -35 -101 -40z" />
    <glyph glyph-name="idieresis" unicode="&#xef;" horiz-adv-x="187" 
d="M4 600q-23 0 -39 16t-16 39t16 38.5t39 15.5q22 0 38.5 -16t16.5 -38q0 -23 -16.5 -39t-38.5 -16zM185 600q-23 0 -39 16t-16 39t16 38.5t39 15.5t39 -16t16 -38q0 -23 -16 -39t-39 -16zM42 0v500h103v-500h-103z" />
    <glyph glyph-name="eth" unicode="&#xf0;" horiz-adv-x="605" 
d="M447 253q0 62 -41 103.5t-104 41.5q-60 0 -102 -42t-42 -103q0 -63 41.5 -104t102.5 -41q63 0 104 41t41 104zM436 676q-10 -8 -31.5 -23l-32.5 -23l157 -246q35 -57 35 -131q0 -110 -76 -185.5t-186 -75.5q-108 0 -184.5 76t-76.5 185q0 110 73.5 180.5t179.5 75.5
q14 0 19 -1l-35 54l-60 -42l-58 81l63 45l-36 52l95 65l36 -49q6 5 61 43z" />
    <glyph glyph-name="ntilde" unicode="&#xf1;" horiz-adv-x="523" 
d="M41 0v500h104v-27q48 35 116 35q97 0 159 -59t62 -154v-295h-111v288q0 44 -32.5 77t-77.5 33q-47 0 -78 -26t-32 -79v-293h-110zM108 621l-14 79q43 46 98 46q24 0 68 -15t61 -15q41 0 92 40l15 -72q-39 -56 -93 -56q-23 0 -71 16t-69 16q-51 0 -87 -39z" />
    <glyph glyph-name="ograve" unicode="&#xf2;" horiz-adv-x="581" 
d="M145 251q0 -62 42.5 -105t104.5 -43t104.5 43t42.5 105q0 61 -43 103.5t-104 42.5t-104 -42.5t-43 -103.5zM33 251q0 107 75.5 182t183.5 75q106 0 181.5 -75t75.5 -182q0 -108 -75 -183.5t-182 -75.5q-108 0 -183.5 75.5t-75.5 183.5zM213 725l189 -79l-42 -74l-182 75
q11 26 35 78z" />
    <glyph glyph-name="oacute" unicode="&#xf3;" horiz-adv-x="581" 
d="M145 251q0 -62 42.5 -105t104.5 -43t104.5 43t42.5 105q0 61 -43 103.5t-104 42.5t-104 -42.5t-43 -103.5zM33 251q0 107 75.5 182t183.5 75q106 0 181.5 -75t75.5 -182q0 -108 -75 -183.5t-182 -75.5q-108 0 -183.5 75.5t-75.5 183.5zM178 646l189 79q11 -26 35 -78
l-182 -75z" />
    <glyph glyph-name="ocircumflex" unicode="&#xf4;" horiz-adv-x="581" 
d="M145 251q0 -62 42.5 -105t104.5 -43t104.5 43t42.5 105q0 61 -43 103.5t-104 42.5t-104 -42.5t-43 -103.5zM33 251q0 107 75.5 182t183.5 75q106 0 181.5 -75t75.5 -182q0 -108 -75 -183.5t-182 -75.5q-108 0 -183.5 75.5t-75.5 183.5zM155 664l134 54l135 -56l-33 -76
q-28 8 -102 42q-81 -35 -101 -40z" />
    <glyph glyph-name="otilde" unicode="&#xf5;" horiz-adv-x="581" 
d="M145 251q0 -62 42.5 -105t104.5 -43t104.5 43t42.5 105q0 61 -43 103.5t-104 42.5t-104 -42.5t-43 -103.5zM33 251q0 107 75.5 182t183.5 75q106 0 181.5 -75t75.5 -182q0 -108 -75 -183.5t-182 -75.5q-108 0 -183.5 75.5t-75.5 183.5zM137 621l-14 79q43 46 98 46
q24 0 68 -15t61 -15q41 0 92 40l15 -72q-39 -56 -93 -56q-23 0 -71 16t-69 16q-51 0 -87 -39z" />
    <glyph glyph-name="odieresis" unicode="&#xf6;" horiz-adv-x="581" 
d="M145 251q0 -62 42.5 -105t104.5 -43t104.5 43t42.5 105q0 61 -43 103.5t-104 42.5t-104 -42.5t-43 -103.5zM33 251q0 107 75.5 182t183.5 75q106 0 181.5 -75t75.5 -182q0 -108 -75 -183.5t-182 -75.5q-108 0 -183.5 75.5t-75.5 183.5zM199 600q-23 0 -39 16t-16 39
t16 38.5t39 15.5q22 0 38.5 -16t16.5 -38q0 -23 -16 -39t-39 -16zM380 600q-23 0 -39 16t-16 39t16 38.5t39 15.5t39 -16t16 -38q0 -23 -16 -39t-39 -16z" />
    <glyph glyph-name="divide" unicode="&#xf7;" horiz-adv-x="572" 
d="M36 301h499v-90h-499v90zM224 416q0 25 18 42.5t43 17.5q24 0 42 -18t18 -42q0 -25 -17.5 -42.5t-42.5 -17.5t-43 17.5t-18 42.5zM224 96q0 25 18 42t43 17q24 0 42 -17.5t18 -41.5q0 -25 -17.5 -43t-42.5 -18t-43 17.5t-18 43.5z" />
    <glyph glyph-name="oslash" unicode="&#xf8;" horiz-adv-x="579" 
d="M228 -60q-20 1 -59 1q0 3 2.5 10.5t2.5 10.5l15 50q-71 30 -114 94.5t-43 144.5q0 107 75.5 182t183.5 75q22 0 41 -4q8 30 16 53h61l-21 -68q72 -30 116 -94.5t44 -143.5q0 -108 -75 -183.5t-182 -75.5q-19 0 -46 5zM445 251q0 45 -23.5 82t-62.5 56l-85 -292h17
q65 0 109.5 44.5t44.5 109.5zM137 251q0 -45 22 -81t60 -56l84 290h-12q-64 0 -109 -44.5t-45 -108.5z" />
    <glyph glyph-name="ugrave" unicode="&#xf9;" horiz-adv-x="521" 
d="M481 499v-499h-105v28q-46 -36 -115 -36q-97 0 -159 59.5t-62 154.5v293h110v-286q0 -45 33 -77.5t77 -32.5q47 0 78.5 26t31.5 78v292h111zM183 725l189 -79l-42 -74l-182 75q11 26 35 78z" />
    <glyph glyph-name="uacute" unicode="&#xfa;" horiz-adv-x="521" 
d="M481 499v-499h-105v28q-46 -36 -115 -36q-97 0 -159 59.5t-62 154.5v293h110v-286q0 -45 33 -77.5t77 -32.5q47 0 78.5 26t31.5 78v292h111zM148 646l189 79q11 -26 35 -78l-182 -75z" />
    <glyph glyph-name="ucircumflex" unicode="&#xfb;" horiz-adv-x="521" 
d="M481 499v-499h-105v28q-46 -36 -115 -36q-97 0 -159 59.5t-62 154.5v293h110v-286q0 -45 33 -77.5t77 -32.5q47 0 78.5 26t31.5 78v292h111zM125 664l134 54l135 -56l-33 -76q-28 8 -102 42q-81 -35 -101 -40z" />
    <glyph glyph-name="udieresis" unicode="&#xfc;" horiz-adv-x="521" 
d="M481 499v-499h-105v28q-46 -36 -115 -36q-97 0 -159 59.5t-62 154.5v293h110v-286q0 -45 33 -77.5t77 -32.5q47 0 78.5 26t31.5 78v292h111zM170 600q-23 0 -39 16t-16 39t16 38.5t39 15.5q22 0 38.5 -16t16.5 -38q0 -23 -16.5 -39t-38.5 -16zM351 600q-23 0 -39 16
t-16 39t16 38.5t39 15.5t39 -16t16 -38q0 -23 -16 -39t-39 -16z" />
    <glyph glyph-name="yacute" unicode="&#xfd;" horiz-adv-x="457" 
d="M450 501l-245 -707h-117l82 229q0 5 -1 9l-12 39l-150 429h119l34.5 -113t45.5 -142l21 -62q0 -3 2 -5q0 1 1.5 3.5t1.5 3.5l21 61l81 255h116zM116 646l189 79q11 -26 35 -78l-182 -75z" />
    <glyph glyph-name="thorn" unicode="&#xfe;" horiz-adv-x="597" 
d="M448 250q0 62 -43 105t-105 43t-105 -43t-43 -105t43 -105t105 -43t105 43t43 105zM41 -205v905h111v-240q64 48 148 48q106 0 182 -76t76 -182t-75.5 -181.5t-182.5 -75.5q-84 0 -148 48v-246h-111z" />
    <glyph glyph-name="ydieresis" unicode="&#xff;" horiz-adv-x="457" 
d="M450 501l-245 -707h-117l82 229q0 5 -1 9l-12 39l-150 429h119l34.5 -113t45.5 -142l21 -62q0 -3 2 -5q0 1 1.5 3.5t1.5 3.5l21 61l81 255h116zM138 600q-23 0 -39 16t-16 39t16 38.5t39 15.5q22 0 38.5 -16t16.5 -38q0 -23 -16.5 -39t-38.5 -16zM319 600q-23 0 -39 16
t-16 39t16 38.5t39 15.5t39 -16t16 -38q0 -23 -16 -39t-39 -16z" />
    <glyph glyph-name="dotlessi" unicode="&#x131;" horiz-adv-x="187" 
d="M42 0v500h103v-500h-103z" />
    <glyph glyph-name="Lslash" unicode="&#x141;" horiz-adv-x="584" 
d="M279 116h261v-116h-381v266l-66 -65l-72 72l138 136v341h117v-225l79 78l72 -73l-151 -149v-231q0 -19 3 -34z" />
    <glyph glyph-name="lslash" unicode="&#x142;" horiz-adv-x="429" 
d="M160 407v293h111v-183l61 62l70 -71l-131 -132v-376h-111v266l-64 -65l-71 71z" />
    <glyph glyph-name="OE" unicode="&#x152;" horiz-adv-x="1142" 
d="M812 313v-191q0 -6 6 -6h268v-116h-390v102q-112 -110 -269 -110q-159 0 -271 112t-112 271t112 271t271 112q157 0 269 -110v102h390v-117h-268q-6 0 -6 -5v-188q0 -5 6 -5h268v-117h-268q-6 0 -6 -5zM160 375q0 -110 78.5 -188.5t188.5 -78.5t188 78.5t78 188.5
t-78 188t-188 78t-188.5 -78t-78.5 -188z" />
    <glyph glyph-name="oe" unicode="&#x153;" horiz-adv-x="994" 
d="M731 97q74 0 144 41l45 -83q-87 -63 -195 -63q-69 0 -126.5 31t-92.5 85q-35 -54 -91.5 -85t-122.5 -31q-108 0 -183.5 75.5t-75.5 183.5q0 107 75.5 182t183.5 75q66 0 122.5 -31.5t91.5 -84.5q34 53 89 84t121 31q105 0 167 -69t62 -175q0 -17 -2 -53h-356q-3 0 -3 -3
q11 -50 51.5 -80t95.5 -30zM145 251q0 -62 42.5 -105t104.5 -43t104.5 43t42.5 105q0 61 -43 103.5t-104 42.5t-104 -42.5t-43 -103.5zM712 405q-49 0 -88.5 -35t-39.5 -72q0 -2 4 -2h239l4 1q0 40 -32.5 74t-86.5 34z" />
    <glyph glyph-name="Scaron" unicode="&#x160;" horiz-adv-x="505" 
d="M45 138l101 32q33 -63 102 -63q39 0 68.5 30t29.5 69q0 26 -9.5 46.5t-29.5 35t-35.5 23t-42.5 19.5q-93 39 -139 84t-46 129q0 93 60.5 153.5t151.5 60.5q57 0 107.5 -30.5t73.5 -82.5l-105 -51q-23 47 -80 47q-36 0 -63.5 -27.5t-27.5 -63.5q0 -21 6 -36.5t21 -28
t26 -19t35 -18.5q120 -52 166 -100.5t46 -140.5q0 -89 -62 -151.5t-149 -62.5h-4q-75 0 -130 42t-71 104zM251 785l-133 53l32 77q20 -6 101 -41q78 35 103 43l33 -77z" />
    <glyph glyph-name="scaron" unicode="&#x161;" horiz-adv-x="350" 
d="M317 136q0 -62 -42 -103t-103 -41q-47 0 -85.5 26.5t-54.5 65.5l81 52l13.5 -17.5t16 -12t26.5 -7.5q17 0 30 12.5t13 30.5q0 39 -79 83q-28 16 -45.5 28.5t-35 41.5t-17.5 66q0 63 41 105t104 42q41 0 75.5 -25t52.5 -62l-79 -53q-21 33 -49 33q-17 0 -28.5 -11
t-11.5 -28q0 -12 9 -23.5t19.5 -18.5t32 -19.5t33.5 -20.5q83 -57 83 -144zM171 585l-133 53l32 77q20 -6 101 -41q78 35 103 43l33 -77z" />
    <glyph glyph-name="Ydieresis" unicode="&#x178;" horiz-adv-x="558" 
d="M12 750h128l136 -324q2 -3 3 -3q3 0 4 3l135 323h127l-207 -479v-270h-117v270zM188 800q-23 0 -39 16t-16 39t16 38.5t39 15.5q22 0 38.5 -16t16.5 -38q0 -23 -16.5 -39t-38.5 -16zM369 800q-23 0 -39 16t-16 39t16 38.5t39 15.5t39 -16t16 -38q0 -23 -16 -39t-39 -16z
" />
    <glyph glyph-name="Zcaron" unicode="&#x17d;" horiz-adv-x="563" 
d="M367 622q2 2 2 6q0 5 -10 5h-315v117h473v-88l-320 -528q-6 -10 -6 -12q0 -6 10 -6h317v-116h-474v90l153 250zM280 785l-133 53l32 77q20 -6 101 -41q78 35 103 43l33 -77z" />
    <glyph glyph-name="zcaron" unicode="&#x17e;" horiz-adv-x="426" 
d="M239 381q2 2 5 8q-1 4 -13 4h-192v107h345v-84l-94.5 -139.5t-108.5 -166.5q3 -3 14 -3h192v-107h-348v81q14 20 38.5 58t35.5 53l26 37zM211 585l-133 53l32 77q20 -6 101 -41q78 35 103 43l33 -77z" />
    <glyph glyph-name="florin" unicode="&#x192;" horiz-adv-x="466" 
d="M266 31q0 -164 -123 -164h-127v94h88q51 0 51 54v388h-112v97h112v68q0 62 32.5 97.5t90.5 35.5h128v-95h-89q-26 0 -38.5 -12.5t-12.5 -41.5v-52h169v-97h-169v-372z" />
    <glyph glyph-name="circumflex" unicode="&#x2c6;" horiz-adv-x="345" 
d="M38 664l134 54l135 -56l-33 -76q-28 8 -102 42q-81 -35 -101 -40z" />
    <glyph glyph-name="caron" unicode="&#x2c7;" horiz-adv-x="344" 
d="M171 585l-133 53l32 77q20 -6 101 -41q78 35 103 43l33 -77z" />
    <glyph glyph-name="breve" unicode="&#x2d8;" horiz-adv-x="373" 
d="M31 708l59 50v-1q47 -47 96 -47q13 0 23 2t20.5 8t15 9.5t17 14.5t16.5 14l59 -52q-22 -31 -61.5 -53.5t-89.5 -22.5q-53 0 -94 22.5t-61 55.5z" />
    <glyph glyph-name="dotaccent" unicode="&#x2d9;" horiz-adv-x="200" 
d="M100 636q-23 0 -39 16t-16 39t16 39t39 16q22 0 38.5 -16t16.5 -39t-16 -39t-39 -16z" />
    <glyph glyph-name="ring" unicode="&#x2da;" horiz-adv-x="229" 
d="M114 568q-30 0 -50 20t-20 50t20.5 50t49.5 20q30 0 50.5 -20.5t20.5 -49.5q0 -30 -20.5 -50t-50.5 -20zM114 594q18 0 31 12.5t13 31.5q0 18 -13 30.5t-31 12.5q-19 0 -31 -12.5t-12 -30.5q0 -19 12 -31.5t31 -12.5z" />
    <glyph glyph-name="ogonek" unicode="&#x2db;" horiz-adv-x="262" 
d="M145 0h52q-31 -18 -57 -51t-26 -67q0 -44 38 -44q31 0 58 22l9 -37q-35 -41 -91 -41q-39 0 -62.5 22.5t-23.5 61.5q0 42 33 80t70 54z" />
    <glyph glyph-name="tilde" unicode="&#x2dc;" horiz-adv-x="425" 
d="M59 621l-14 79q43 46 98 46q24 0 68 -15t61 -15q41 0 92 40l15 -72q-39 -56 -93 -56q-23 0 -71 16t-69 16q-51 0 -87 -39z" />
    <glyph glyph-name="hungarumlaut" unicode="&#x2dd;" horiz-adv-x="518" 
d="M42 710l171 73l38 -79l-163 -67zM270 709l171 74l38 -80l-163 -67z" />
    <glyph glyph-name="endash" unicode="&#x2013;" horiz-adv-x="595" 
d="M47 332h500v-90h-500v90z" />
    <glyph glyph-name="emdash" unicode="&#x2014;" horiz-adv-x="771" 
d="M47 332h676v-90h-676v90z" />
    <glyph glyph-name="quoteleft" unicode="&#x2018;" horiz-adv-x="179" 
d="M29 747l98 3q5 -59 13 -190q-20 -1 -55 -5z" />
    <glyph glyph-name="quoteright" unicode="&#x2019;" horiz-adv-x="192" 
d="M51 750l98 -3l-56 -192q-35 4 -55 5q8 131 13 190z" />
    <glyph glyph-name="quotesinglbase" unicode="&#x201a;" horiz-adv-x="192" 
d="M51 117l98 -3l-56 -191l-55 6q8 121 13 188z" />
    <glyph glyph-name="quotedblleft" unicode="&#x201c;" horiz-adv-x="325" 
d="M34 747l98 3q5 -59 13 -190q-20 -1 -55 -5zM170 747l99 3q8 -131 13 -190q-20 -1 -55 -5z" />
    <glyph glyph-name="quotedblright" unicode="&#x201d;" horiz-adv-x="330" 
d="M187 750l99 -3l-57 -192q-35 4 -55 5q5 59 13 190zM51 750l98 -3l-56 -192q-35 4 -55 5q8 131 13 190z" />
    <glyph glyph-name="quotedblbase" unicode="&#x201e;" horiz-adv-x="330" 
d="M187 117l98 -3l-56 -191l-55 6q8 121 13 188zM51 117l98 -3l-56 -191l-55 6q8 121 13 188z" />
    <glyph glyph-name="dagger" unicode="&#x2020;" horiz-adv-x="644" 
d="M268 -185v601h-233v103h233v230h109v-230h231v-103h-231v-601h-109z" />
    <glyph glyph-name="daggerdbl" unicode="&#x2021;" horiz-adv-x="646" 
d="M269 -185v406h-233v103h233v92h-233v103h233v230h109v-230h233v-103h-233v-92h233v-103h-233v-406h-109z" />
    <glyph glyph-name="bullet" unicode="&#x2022;" horiz-adv-x="298" 
d="M44 300q0 43 30.5 74t74.5 31q43 0 74 -31t31 -74q0 -44 -31 -74.5t-74 -30.5q-44 0 -74.5 30.5t-30.5 74.5z" />
    <glyph glyph-name="ellipsis" unicode="&#x2026;" horiz-adv-x="665" 
d="M99 -4q-22 0 -37 14.5t-15 34.5q0 21 15 36t37 15q19 0 34 -15.5t15 -35.5t-14.5 -34.5t-34.5 -14.5zM334 -4q-22 0 -37 14.5t-15 34.5q0 21 15 36t37 15q19 0 34 -15.5t15 -35.5t-14.5 -34.5t-34.5 -14.5zM569 -4q-22 0 -37 14.5t-15 34.5q0 21 15 36t37 15
q19 0 34 -15.5t15 -35.5t-14.5 -34.5t-34.5 -14.5z" />
    <glyph glyph-name="perthousand" unicode="&#x2030;" horiz-adv-x="1278" 
d="M490 180q0 75 52.5 127.5t127.5 52.5t127.5 -52.5t52.5 -127.5t-52.5 -127.5t-127.5 -52.5t-127.5 52.5t-52.5 127.5zM43 570q0 75 52.5 127.5t127.5 52.5t127.5 -52.5t52.5 -127.5t-52.5 -127.5t-127.5 -52.5t-127.5 52.5t-52.5 127.5zM875 180q0 75 52.5 127.5
t127.5 52.5t127.5 -52.5t52.5 -127.5t-52.5 -127.5t-127.5 -52.5t-127.5 52.5t-52.5 127.5zM280 2h-6q-49 0 -49 22q5 12 17 36l346 658q12 24 31 38q29 -9 40 -32q-9 -20 -31 -62zM128 570q0 -40 27.5 -67.5t67.5 -27.5t67.5 27.5t27.5 67.5t-27.5 67.5t-67.5 27.5
t-67.5 -27.5t-27.5 -67.5zM960 180q0 -40 27.5 -67.5t67.5 -27.5t67.5 27.5t27.5 67.5t-27.5 67.5t-67.5 27.5t-67.5 -27.5t-27.5 -67.5zM575 180q0 -40 27.5 -67.5t67.5 -27.5t67.5 27.5t27.5 67.5t-27.5 67.5t-67.5 27.5t-67.5 -27.5t-27.5 -67.5z" />
    <glyph glyph-name="guilsinglleft" unicode="&#x2039;" horiz-adv-x="272" 
d="M32 271l131 203l71 -54l-97 -150l99 -150l-76 -52q-128 200 -128 203z" />
    <glyph glyph-name="guilsinglright" unicode="&#x203a;" horiz-adv-x="286" 
d="M116 474l131 -203q0 -2 -129 -203l-75 52l98 150l-97 150z" />
    <glyph glyph-name="fraction" unicode="&#x2044;" horiz-adv-x="512" 
d="M76 -17l-51 25l409 754l50 -30z" />
    <glyph glyph-name="Euro" unicode="&#x20ac;" horiz-adv-x="593" 
d="M340 109q35 0 66 19t49 48l91 -71q-33 -50 -90 -81.5t-116 -31.5q-105 0 -177 74t-72 184h-55v92h54v61h-54v88h55q0 102 69 181t180 79q59 0 119.5 -33t89.5 -85l-94 -63q-46 69 -116 69q-48 0 -89 -36t-45 -90v-21h235v-89h-235v-62h235v-92h-233v-22q0 -43 41 -80.5
t92 -37.5z" />
    <glyph glyph-name="trademark" unicode="&#x2122;" horiz-adv-x="753" 
d="M513 449q38 102 106 302h91v-413h-65v279q0 16 -2 23l-19 -55l-47 -132.5l-40 -114.5h-49l-45 130q-39 119 -59 171q0 -2 -0.5 -10.5t-1.5 -11.5v-279h-67v413h90l98 -281l9 -23q1 0 1 2zM130 337v346q0 3 -3 3h-96v65h264v-65h-96q-3 -1 -4 -4v-345h-65z" />
    <glyph glyph-name="minus" unicode="&#x2212;" horiz-adv-x="551" 
d="M47 301h457v-90h-457v90z" />
    <glyph glyph-name="fi" unicode="&#xfb01;" horiz-adv-x="649" 
d="M106 496v67q0 62 37 100t99 38h89v-98h-60q-55 0 -55 -56v-51h145v-100h-145v-396h-110v396h-79v100h79zM429 0v500h111v-500h-111zM485 554q-23 0 -39.5 16t-16.5 40q0 22 16.5 38t39.5 16q22 0 38.5 -16.5t16.5 -37.5q0 -23 -16 -39.5t-39 -16.5z" />
    <glyph glyph-name="CR" horiz-adv-x="290" 
 />
    </font>
</defs>
</svg>
